<svg xmlns="http://www.w3.org/2000/svg" width="22" height="24" viewBox="0 0 22 24">
  <g id="Group_2243" data-name="Group 2243" transform="translate(-2088.428 -1139.428)">
    <path id="Path_1199" data-name="Path 1199" d="M2088.893,1382.514c-.453.971-.814,2.044-1.3,2.976-1.09,2.094-2.8,3.36-4.532,3.347.1.4.425.466.674.633.648.435.85,1.71,1.354,2.479a2.055,2.055,0,0,0,1.563.935c.569.059,1.139-.053,1.708-.05,1.815.009,3.549,1.176,5.356,1.431a2.563,2.563,0,0,0,2.652-1.042,6.01,6.01,0,0,0,.729-1.791,18.181,18.181,0,0,0,.341-7.516,7.318,7.318,0,0,0-.48-1.769,3.322,3.322,0,0,0-1.509-1.629,4.723,4.723,0,0,0-1.841-.434,5.878,5.878,0,0,0-2.9.1A5.035,5.035,0,0,0,2088.893,1382.514Z" transform="translate(5.51 -231.42)" fill="#c44e33"/>
    <g id="Group_266" data-name="Group 266" transform="translate(2088.571 1151.765)">
      <path id="Path_1200" data-name="Path 1200" d="M2213.726,1572.623a35.192,35.192,0,0,0,1.407-5.71,8.4,8.4,0,0,1-1.549,3.418,15.613,15.613,0,0,1-1.687,2.24,4.462,4.462,0,0,1-.448.406,2.278,2.278,0,0,0,.635.157,11.682,11.682,0,0,0,1.547-.048A4.176,4.176,0,0,1,2213.726,1572.623Z" transform="translate(-2208.495 -1563.437)" fill="#af412f"/>
      <path id="Path_1201" data-name="Path 1201" d="M2083.735,1476.427a1.624,1.624,0,0,1,.487.589,3.555,3.555,0,0,1,.387-.237,6.81,6.81,0,0,0,1.2-.84,6.979,6.979,0,0,0,1.261-1.523,11.326,11.326,0,0,0,1.456-3.871c.014-.071.041-.223.068-.4-.327.777-.628,1.582-1,2.3-1.09,2.094-2.8,3.36-4.532,3.347C2083.157,1476.19,2083.486,1476.26,2083.735,1476.427Z" transform="translate(-2083.061 -1470.144)" fill="#af412f"/>
      <path id="Path_1202" data-name="Path 1202" d="M2383,1597.775a16.9,16.9,0,0,0,.658-4.9c-.019-.359-.313-.549-.532-.437a1.413,1.413,0,0,0-.494.723c-.416,1-.707,2.117-1.107,3.135a7.071,7.071,0,0,1-.849,1.612c.7.2,1.4.484,2.1.731C2382.856,1598.355,2382.928,1598.064,2383,1597.775Z" transform="translate(-2373.825 -1588.013)" fill="#af412f"/>
    </g>
    <path id="Path_1203" data-name="Path 1203" d="M2244.4,1354.434c-.331-.306-.75-.68-1.167-.51s-.458.777-.36,1.233a5.506,5.506,0,0,0,2.769,3.748,4.4,4.4,0,0,0,4.552-.312,1.594,1.594,0,0,0,.742-1.221c-.034-1.386-1.889-1.287-2.836-1.347A6.087,6.087,0,0,1,2244.4,1354.434Z" transform="translate(-154.403 -206.749)" fill="#424747"/>
    <path id="Path_1204" data-name="Path 1204" d="M2260.3,1381.511a.293.293,0,0,1-.017.158.245.245,0,0,1-.114.106.52.52,0,0,1-.4.017.841.841,0,0,1-.337-.237.774.774,0,0,1-.224-.549.243.243,0,0,1,.026-.1.256.256,0,0,1,.066-.072.451.451,0,0,1,.669.038A1.018,1.018,0,0,1,2260.3,1381.511Z" transform="translate(-170.192 -232.602)" fill="#f2c3b8"/>
    <path id="Path_1205" data-name="Path 1205" d="M2251.481,1364.292a.207.207,0,0,1-.021.113.162.162,0,0,1-.156.071.291.291,0,0,1-.16-.078c-.127-.112-.182-.39.036-.446C2251.362,1363.905,2251.476,1364.145,2251.481,1364.292Z" transform="translate(-162.311 -216.452)" fill="#f2c3b8"/>
    <path id="Path_1206" data-name="Path 1206" d="M2245.417,1381.411a.263.263,0,0,1,.122.129.165.165,0,0,1-.025.17.168.168,0,0,1-.183.032.283.283,0,0,1-.137-.137.249.249,0,0,1-.032-.138.135.135,0,0,1,.078-.112.216.216,0,0,1,.191.056Z" transform="translate(-156.65 -233.228)" fill="#f2c3b8"/>
    <path id="Path_1207" data-name="Path 1207" d="M2268.144,1366.145a.159.159,0,0,1,.213-.051.191.191,0,0,1,.117.248.175.175,0,0,1-.241.047A.237.237,0,0,1,2268.144,1366.145Z" transform="translate(-178.803 -218.504)" fill="#f2c3b8"/>
    <path id="Path_1208" data-name="Path 1208" d="M2631.715,1366.491c.355-.278.8-.615,1.205-.411s.392.812.257,1.259a5.5,5.5,0,0,1-3.069,3.505,4.4,4.4,0,0,1-4.511-.689,1.592,1.592,0,0,1-.639-1.278c.149-1.379,1.988-1.126,2.937-1.106A6.084,6.084,0,0,0,2631.715,1366.491Z" transform="translate(-522.837 -218.449)" fill="#424747"/>
    <path id="Path_1209" data-name="Path 1209" d="M2807.528,1390.75a.3.3,0,0,0,.015.159.246.246,0,0,0,.112.107.519.519,0,0,0,.4.023.837.837,0,0,0,.34-.231.777.777,0,0,0,.233-.545.247.247,0,0,0-.024-.105.256.256,0,0,0-.064-.073.451.451,0,0,0-.669.027A1.021,1.021,0,0,0,2807.528,1390.75Z" transform="translate(-698.869 -241.52)" fill="#f2c3b8"/>
    <path id="Path_1210" data-name="Path 1210" d="M2834.353,1373.758a.213.213,0,0,0,.02.113.162.162,0,0,0,.155.074.293.293,0,0,0,.161-.076c.128-.11.188-.387-.03-.447C2834.478,1373.373,2834.36,1373.611,2834.353,1373.758Z" transform="translate(-724.736 -225.581)" fill="#f2c3b8"/>
    <path id="Path_1211" data-name="Path 1211" d="M2841.775,1391a.262.262,0,0,0-.124.127.164.164,0,0,0,.023.171.166.166,0,0,0,.182.035.283.283,0,0,0,.139-.135.248.248,0,0,0,.034-.137.134.134,0,0,0-.076-.113.215.215,0,0,0-.191.052Z" transform="translate(-731.76 -242.472)" fill="#f2c3b8"/>
    <path id="Path_1212" data-name="Path 1212" d="M2820.344,1375.378a.159.159,0,0,0-.212-.054.191.191,0,0,0-.121.246.176.176,0,0,0,.24.051A.237.237,0,0,0,2820.344,1375.378Z" transform="translate(-710.894 -227.404)" fill="#f2c3b8"/>
    <path id="Path_1213" data-name="Path 1213" d="M2357.136,1320.458a14.725,14.725,0,0,0-.7,5.328,6.324,6.324,0,0,0,1.727,4.448,6.428,6.428,0,0,0,2.465,1.279,9.961,9.961,0,0,0,4.733.374,6.268,6.268,0,0,0,3.96-2.379,6.993,6.993,0,0,0,1.128-3.046,9.183,9.183,0,0,0-.641-5.223,6.862,6.862,0,0,0-3.872-3.612,9.456,9.456,0,0,0-2.266-.434,7.174,7.174,0,0,0-4.159.637,8.175,8.175,0,0,0-1.3.66A4.247,4.247,0,0,0,2357.136,1320.458Z" transform="translate(-263.916 -171.33)" fill="#f4e9dc"/>
    <path id="Path_1214" data-name="Path 1214" d="M2654.235,1142.5a1.864,1.864,0,0,0-1.227-1.312,2.423,2.423,0,0,0-1.821.159,1.983,1.983,0,0,0-.606.441,1.806,1.806,0,0,0,.054,2.295c.456.536,1.863,1.2,2.53.668.126-.1.147-.281.242-.405.138-.182.346-.3.488-.478A1.669,1.669,0,0,0,2654.235,1142.5Z" transform="translate(-547.176 -1.594)" fill="#424747"/>
    <path id="Path_1215" data-name="Path 1215" d="M2686.916,1170.8a1.061,1.061,0,0,0,.059-.626.808.808,0,0,0-.075-.249.775.775,0,0,0-.4-.322,1.219,1.219,0,0,0-.9-.051.8.8,0,0,0-.523.7.83.83,0,0,0,.286.6,1.627,1.627,0,0,0,.6.323A.83.83,0,0,0,2686.916,1170.8Z" transform="translate(-580.808 -28.974)" fill="#f2c3b8"/>
    <path id="Path_1216" data-name="Path 1216" d="M2343.583,1140.851a1.863,1.863,0,0,1,1.226-1.312,2.422,2.422,0,0,1,1.821.158,1.981,1.981,0,0,1,.607.441,1.806,1.806,0,0,1-.054,2.295c-.456.536-1.863,1.2-2.53.668-.126-.1-.147-.281-.242-.405-.138-.181-.345-.3-.488-.478A1.669,1.669,0,0,1,2343.583,1140.851Z" transform="translate(-251.513 0)" fill="#424747"/>
    <path id="Path_1217" data-name="Path 1217" d="M2368.917,1169.143a1.061,1.061,0,0,1-.059-.626.8.8,0,0,1,.075-.249.776.776,0,0,1,.4-.322,1.22,1.22,0,0,1,.9-.051.794.794,0,0,1,.523.7.831.831,0,0,1-.287.6,1.618,1.618,0,0,1-.6.323A.83.83,0,0,1,2368.917,1169.143Z" transform="translate(-275.896 -27.381)" fill="#f2c3b8"/>
    <path id="Path_1218" data-name="Path 1218" d="M2359.877,1151.133a6.73,6.73,0,0,0-2.995-1.81,19.978,19.978,0,0,0-6.15,0,6.728,6.728,0,0,0-2.995,1.81,5.264,5.264,0,0,0,.924,7.886,7.763,7.763,0,0,0,3.148,1.134,24.618,24.618,0,0,0,4,0,7.767,7.767,0,0,0,3.148-1.134,5.264,5.264,0,0,0,.924-7.886Z" transform="translate(-254.233 -9.31)" fill="#f4e9dc"/>
    <path id="Path_1219" data-name="Path 1219" d="M2384.24,1205.068a2.142,2.142,0,0,0-.714,1.271,1.341,1.341,0,0,0,1.271,1.451,2.162,2.162,0,0,0,1.3-.679,4.16,4.16,0,0,1,1.2-.9c.477-.184,1.086-.181,1.361-.634a1.038,1.038,0,0,0-.218-1.2C2387.228,1203.14,2385.288,1204.045,2384.24,1205.068Z" transform="translate(-290.053 -62.038)" fill="#424747"/>
    <path id="Path_1220" data-name="Path 1220" d="M2378.166,1202.734a4.1,4.1,0,0,1,.26,2.153,5.511,5.511,0,0,1-2.74,3.465,11.085,11.085,0,0,1-5.525,1.788,8.6,8.6,0,0,1-4.727-1.2c.4.716.922.911,1.6,1.372.929.634,2.2.155,3.3.337a25.626,25.626,0,0,0,4.078.009,12.483,12.483,0,0,1,2.943.085,5.264,5.264,0,0,0,.924-7.886C2378.243,1202.813,2378.2,1202.774,2378.166,1202.734Z" transform="translate(-272.614 -61.031)" fill="#e8ded4"/>
    <path id="Path_1221" data-name="Path 1221" d="M2513.509,1304.26a.927.927,0,0,0-.375.088.357.357,0,0,0-.2.31.432.432,0,0,0,.319.343,2.728,2.728,0,0,1,.47.157,2.618,2.618,0,0,1,.432.432.445.445,0,0,0,.55.109,1.8,1.8,0,0,0,.179-.222c.169-.184.457-.165.7-.235a.658.658,0,0,0,.374-.258.427.427,0,0,0,.025-.44.683.683,0,0,0-.526-.254A9.356,9.356,0,0,0,2513.509,1304.26Z" transform="translate(-414.83 -158.876)" fill="#424747"/>
    <g id="Group_267" data-name="Group 267" transform="translate(2095.734 1142.718)">
      <path id="Path_1222" data-name="Path 1222" d="M2446.853,1231.306a.481.481,0,0,0,.073.569.617.617,0,0,0,.234.127.6.6,0,0,0,.346.025.554.554,0,0,0,.2-.117.668.668,0,0,0,.24-.4.426.426,0,0,0-.171-.417A.7.7,0,0,0,2446.853,1231.306Z" transform="translate(-2446.792 -1231)" fill="#151616"/>
      <path id="Path_1223" data-name="Path 1223" d="M2453.1,1236.236c-.068.056-.134.14-.106.223a.125.125,0,0,0,.164.072.555.555,0,0,0,.109-.1c.069-.058.175-.075.219-.154a.078.078,0,0,0,.011-.042c0-.041-.047-.066-.088-.069A.376.376,0,0,0,2453.1,1236.236Z" transform="translate(-2452.765 -1235.98)" fill="#fff"/>
    </g>
    <path id="Path_1224" data-name="Path 1224" d="M2351.284,1398.818a4.152,4.152,0,0,1-1.348.373,8.293,8.293,0,0,1-1.373-.014,24.49,24.49,0,0,1-3.69-.431,4.754,4.754,0,0,1-1.273-.437c.463-.006,1.01-.349,1.416-.232.488.141.943.4,1.442.531a11.194,11.194,0,0,0,3.1.337q.434-.008.866-.042A2.9,2.9,0,0,0,2351.284,1398.818Z" transform="translate(-251.562 -249.332)" fill="#c44e33"/>
    <path id="Path_1225" data-name="Path 1225" d="M2528.382,1414.166a.538.538,0,0,0,.152.439.969.969,0,0,0,.41.241,1.191,1.191,0,0,0,.7.031.771.771,0,0,0,.514-.458.575.575,0,0,0-.176-.644C2529.561,1413.465,2528.487,1413.505,2528.382,1414.166Z" transform="translate(-429.721 -264.311)" fill="#c44e33"/>
    <path id="Path_1226" data-name="Path 1226" d="M2413.521,1428.145c-.261.271-.479.581-.75.841a4.766,4.766,0,0,1-2.74,1.1,3.8,3.8,0,0,0,3.98-.463,2.382,2.382,0,0,0,.945-1.644,1.72,1.72,0,0,1-.041.947,2.407,2.407,0,0,1-1,1.145c-.428.286-.9.508-1.309.816a2.085,2.085,0,0,0-.868,1.234,3.269,3.269,0,0,1,1.923-.84c.293-.05.589-.092.877-.168a3.787,3.787,0,0,0,1.586-.857,1.409,1.409,0,0,0,.281-.328,1.737,1.737,0,0,0,.17-.581,1.609,1.609,0,0,0-.1-1.172,1.322,1.322,0,0,0-.653-.447A2.044,2.044,0,0,0,2413.521,1428.145Z" transform="translate(-315.613 -277.774)" fill="#c44e33"/>
    <path id="Path_1227" data-name="Path 1227" d="M2390,1398.057c-1.419-.071-2.865.552-4.316.638a7.034,7.034,0,0,1,2.516,2.924,5.368,5.368,0,0,1,.24,3.817,5.47,5.47,0,0,1-4.347,3.5,7.42,7.42,0,0,1-5.5-1.531l-.4-.4-.077.006a4.506,4.506,0,0,0,.972,1.286,6.429,6.429,0,0,0,2.465,1.28,9.963,9.963,0,0,0,4.733.374,6.27,6.27,0,0,0,3.96-2.379,7,7,0,0,0,1.128-3.046,9.181,9.181,0,0,0-.641-5.223A7.234,7.234,0,0,0,2390,1398.057Z" transform="translate(-284.845 -249.332)" fill="#e8ded4"/>
    <path id="Path_1228" data-name="Path 1228" d="M2592.043,1598.1a2.381,2.381,0,0,1,1.412.542c.065.055.134.128.122.212-.016.113-.155.153-.268.166a12.182,12.182,0,0,1-4.343-.255q.155-1.073.309-2.146a1.174,1.174,0,0,1,.076-.317,1.155,1.155,0,0,1,.516-.467,20.938,20.938,0,0,0,2.8-1.788,7.079,7.079,0,0,0,1.932-2.7,6.5,6.5,0,0,1-.634,2.943A17.111,17.111,0,0,1,2592.043,1598.1Z" transform="translate(-488.14 -435.685)" fill="#424747"/>
    <path id="Path_1229" data-name="Path 1229" d="M2356.055,1509.553a17.022,17.022,0,0,0,14.167.183l-.031,1.442-.164,1.313a10.542,10.542,0,0,1-6.734,1.973c-4.966-.133-7.107-2.18-7.107-2.18l-.131-1.219Z" transform="translate(-263.571 -356.828)" fill="#424747"/>
    <path id="Path_1230" data-name="Path 1230" d="M2504.293,1560.828c0,.807-.93,1.461-2.077,1.461s-2.077-.654-2.077-1.461.93-1.461,2.077-1.461S2504.293,1560.021,2504.293,1560.828Z" transform="translate(-402.493 -404.852)" fill="#f4e9dc"/>
    <g id="Group_268" data-name="Group 268" transform="translate(2097.597 1154.467)">
      <path id="Path_1231" data-name="Path 1231" d="M2500.929,1561.05c-1.172,0-2.125-.677-2.125-1.509s.953-1.509,2.125-1.509,2.125.677,2.125,1.509S2502.1,1561.05,2500.929,1561.05Zm0-2.921c-1.119,0-2.029.634-2.029,1.413s.91,1.413,2.029,1.413,2.03-.634,2.03-1.413S2502.048,1558.129,2500.929,1558.129Z" transform="translate(-2498.804 -1558.033)" fill="#c44e33"/>
    </g>
    <g id="Group_269" data-name="Group 269" transform="translate(2098.556 1155.297)">
      <path id="Path_1232" data-name="Path 1232" d="M2526.665,1581.5c-.183-.514-1.319-.453-1.044.144.155.338.56.26.852.351.142.044.38.209.2.377a.575.575,0,0,1-.311.092.749.749,0,0,1-.276-.029c-.014,0-.289-.16-.26-.175a.075.075,0,0,0-.037-.138c-.136.009-.16.128-.094.234a.635.635,0,0,0,.371.244c.254.067.8.037.832-.31.047-.456-.538-.457-.831-.52a.408.408,0,0,1-.3-.184c-.1-.195.1-.291.259-.3a.909.909,0,0,1,.6.249.031.031,0,0,0,.045-.035Z" transform="translate(-2525.578 -1581.156)" fill="#c44e33"/>
    </g>
    <g id="Group_270" data-name="Group 270" transform="translate(2099.896 1155.311)">
      <path id="Path_1233" data-name="Path 1233" d="M2563.03,1581.568a2.785,2.785,0,0,0-.051.694c0,.252,0,.5.008.755a.074.074,0,1,0,.146-.02c0-.033-.009-.067-.016-.1-.013-.074-.115-.047-.121.017,0,.034-.007.068-.009.1h.149q-.017-.377-.023-.755a3.761,3.761,0,0,0-.026-.694.03.03,0,0,0-.056,0Z" transform="translate(-2562.978 -1581.547)" fill="#c44e33"/>
    </g>
    <g id="Group_271" data-name="Group 271" transform="translate(2099.916 1155.156)">
      <path id="Path_1234" data-name="Path 1234" d="M2563.546,1577.467c.083-.1.286-.1.4-.092a.416.416,0,0,1,.427.266.323.323,0,0,1-.3.405,2.589,2.589,0,0,1-.469-.091c-.069-.009-.1.1-.036.133a.827.827,0,0,0,.739.047.475.475,0,0,0,.208-.535.577.577,0,0,0-.993-.147c-.006.011.01.025.018.014Z" transform="translate(-2563.527 -1577.227)" fill="#c44e33"/>
    </g>
    <path id="Path_1235" data-name="Path 1235" d="M2541.462,1402.216a4.157,4.157,0,0,0,1.338.41,8.315,8.315,0,0,0,1.373.023,24.5,24.5,0,0,0,3.7-.33,4.75,4.75,0,0,0,1.285-.4c-.463-.019-1-.377-1.409-.27-.491.128-.954.372-1.456.492a11.19,11.19,0,0,1-3.109.253q-.433-.02-.865-.065A2.9,2.9,0,0,1,2541.462,1402.216Z" transform="translate(-442.337 -252.778)" fill="#c44e33"/>
    <path id="Path_1236" data-name="Path 1236" d="M2362.309,1598.1a2.38,2.38,0,0,0-1.412.542c-.066.055-.134.128-.122.212.017.113.156.153.268.166a12.183,12.183,0,0,0,4.343-.255q-.155-1.073-.309-2.146a1.174,1.174,0,0,0-.076-.317,1.155,1.155,0,0,0-.516-.467,20.951,20.951,0,0,1-2.8-1.788,7.076,7.076,0,0,1-1.931-2.7,6.5,6.5,0,0,0,.633,2.943A17.131,17.131,0,0,0,2362.309,1598.1Z" transform="translate(-267.107 -435.685)" fill="#424747"/>
    <path id="Path_1237" data-name="Path 1237" d="M2584.1,1206.72a2.154,2.154,0,0,1,.7,1.271,1.335,1.335,0,0,1-1.251,1.452,2.119,2.119,0,0,1-1.281-.679,4.091,4.091,0,0,0-1.182-.9c-.469-.184-1.069-.181-1.34-.634a1.05,1.05,0,0,1,.215-1.2C2581.158,1204.792,2583.068,1205.7,2584.1,1206.72Z" transform="translate(-479.147 -63.631)" fill="#424747"/>
    <g id="Group_272" data-name="Group 272" transform="translate(2102.496 1142.833)">
      <path id="Path_1238" data-name="Path 1238" d="M2635.625,1234.5a.481.481,0,0,0,.073.569.617.617,0,0,0,.234.127.6.6,0,0,0,.346.025.556.556,0,0,0,.2-.117.667.667,0,0,0,.24-.4.425.425,0,0,0-.171-.417A.7.7,0,0,0,2635.625,1234.5Z" transform="translate(-2635.565 -1234.196)" fill="#151616"/>
      <path id="Path_1239" data-name="Path 1239" d="M2641.872,1239.433c-.067.056-.134.14-.106.223a.126.126,0,0,0,.164.072c.044-.02.072-.064.109-.1.07-.058.176-.075.219-.154a.081.081,0,0,0,.011-.041c0-.041-.047-.066-.088-.069A.377.377,0,0,0,2641.872,1239.433Z" transform="translate(-2641.538 -1239.177)" fill="#fff"/>
    </g>
    <path id="Path_1240" data-name="Path 1240" d="M2497.9,1349.464a2.7,2.7,0,0,0,.8-.563,2.977,2.977,0,0,1-1.362,1.438,1.89,1.89,0,0,1-1.375-.034,3.572,3.572,0,0,1-1.182-.815,2.717,2.717,0,0,1-.423-.51,3.124,3.124,0,0,0,.746.5A4.112,4.112,0,0,0,2497.9,1349.464Z" transform="translate(-396.912 -201.947)" fill="#424747"/>
    <path id="Path_1241" data-name="Path 1241" d="M2415.515,1162.293a1.273,1.273,0,0,0,.816-.3,7.866,7.866,0,0,1,.706-.539,4.844,4.844,0,0,1,1.714-.4c.115-.018.265-.1.216-.208a.178.178,0,0,0-.088-.075,1.7,1.7,0,0,0-.984-.087,6.1,6.1,0,0,0-2.248.781c-.151.089-.5.276-.537.469C2415.064,1162.145,2415.328,1162.28,2415.515,1162.293Z" transform="translate(-320.505 -20.456)" fill="#fff"/>
    <path id="Path_1242" data-name="Path 1242" d="M2387.562,1210.113a1.372,1.372,0,0,0-.352.315.57.57,0,0,0-.125.245.268.268,0,0,0,.078.253.278.278,0,0,0,.172.057.683.683,0,0,0,.566-.435.461.461,0,0,0,.059-.195.266.266,0,0,0-.463-.185Z" transform="translate(-293.485 -68.116)" fill="#fff"/>
  </g>
</svg>
